<svg xmlns="http://www.w3.org/2000/svg" viewBox="0 0 133.13 91.55"><defs><style>.cls-1,.cls-2{fill:#fffef7;}.cls-1{stroke:#fffef7;stroke-miterlimit:10;stroke-width:3px;}.cls-3{fill:#bad1dd;}.cls-4{fill:none;stroke:#1f2833;stroke-width:2px;}.cls-5,.cls-7{fill:#97aab7;}.cls-6{fill:#5bd6d0;}.cls-7{font-size:29.8px;letter-spacing:-0.03em;}.cls-7,.cls-8{font-family:BankGothicBT-Medium, BankGothic Md BT;font-weight:500;}.cls-8{font-size:13.6px;fill:#4fa6a4;}.cls-9{letter-spacing:-0.02em;}.cls-10{letter-spacing:0em;}.cls-11{fill:#2a827f;}.cls-12{fill:#269b95;}</style></defs><title>sticker</title><g id="Layer_2" data-name="Layer 2"><g id="Layer_18" data-name="Layer 18"><g id="Layer_19" data-name="Layer 19"><polygon class="cls-1" points="40.93 2.42 3.23 66.25 128.6 66.25 63.4 6.9 54.34 15.64 40.93 2.42"/><rect class="cls-2" x="0.61" y="67.75" width="131.87" height="18.34"/></g><rect class="cls-3" x="34.06" y="37.55" width="2.09" height="1.42"/><polygon class="cls-3" points="35.27 40.1 34.95 40.1 34.95 34.76 35.11 34.33 35.27 34.76 35.27 40.1"/><rect class="cls-3" x="31.85" y="38.78" width="6.37" height="27.03"/><polygon class="cls-4" points="125.95 65.25 47.23 65.25 91.58 34.34 125.95 65.25"/><polygon class="cls-4" points="91.58 34.34 63.45 8.1 54.3 17.06 41.02 4.03 4.98 65.25 47.23 65.25 91.58 34.34"/><line class="cls-4" x1="54.3" y1="17.06" x2="71.58" y2="35.05"/><path class="cls-5" d="M21.46,47.43V65.61l14.25,0,0-20.82L24,44.79A2.57,2.57,0,0,0,21.46,47.43Z"/><path class="cls-6" d="M67.07,43.76l-.34,21.81-17.43,0,.21-27.2,5.13,5.16Z"/><text class="cls-7" transform="translate(0 84.52) scale(0.83 1)">BOISE</text><text class="cls-8" transform="translate(86.48 75.32) scale(1.05 1)">CODE<tspan class="cls-9"><tspan x="0" y="9.07">C</tspan><tspan class="cls-10" x="10.65" y="9.07">AMP</tspan></tspan></text><path class="cls-11" d="M42.5,46.08l-1.14,0c-.25-.72.54-1.62.6-1.68s.51-1,.51-1h0C42.5,44.25,42.51,45.16,42.5,46.08Z"/><path class="cls-12" d="M42.5,46.08l1.1,0c.24-.72-.5-1.62-.56-1.68s-.51-1-.51-1h0Z"/><path class="cls-11" d="M42.51,65.61H33a1.16,1.16,0,0,0,.3-.18c.43-.37.36-.89.69-2.05a2.16,2.16,0,0,1,.38-.88A4,4,0,0,1,35,62l.44-.27-.12-7.56L37.37,54c0-2.36,0-1.72,0-4.09,0-.08,0-.21.1-.36.16-.43.66-1.49.89-2a3.37,3.37,0,0,1,1.41-1.33A8.27,8.27,0,0,1,41,45.75a6.59,6.59,0,0,1,.79-.28,5.12,5.12,0,0,1,.77-.13Z"/><path class="cls-12" d="M42.51,65.61h9.55a1.14,1.14,0,0,1-.29-.18c-.43-.37-.36-.89-.69-2.05a2,2,0,0,0-.39-.88,3.51,3.51,0,0,0-.63-.51l-.44-.27q.06-3.78.11-7.56L47.65,54c0-2.36,0-1.72,0-4.09,0-.08,0-.21-.1-.36-.16-.43-.66-1.49-.89-2a3.37,3.37,0,0,0-1.41-1.33,8.48,8.48,0,0,0-1.18-.55,6.57,6.57,0,0,0-.78-.28,5.12,5.12,0,0,0-.77-.13Z"/><path class="cls-12" d="M42.51,65.61H59.14L57.92,64c0-1.53-.14-5.77-1.8-5.77H42.51Z"/><path class="cls-11" d="M42.51,65.61H25.88L27.1,64c0-1.53.14-5.77,1.8-5.77H42.51Z"/></g></g></svg>