<svg xmlns="http://www.w3.org/2000/svg" viewBox="0 0 136.13 89.13"><defs><style>.cls-1,.cls-3,.cls-4{fill:#fff;}.cls-2{fill:none;stroke:#fff;stroke-width:2px;}.cls-3{font-size:29.8px;}.cls-3,.cls-4{font-family:BankGothicBT-Medium, BankGothic Md BT;font-weight:500;}.cls-4{font-size:13.6px;}.cls-5{letter-spacing:-0.02em;}.cls-6{letter-spacing:0em;}</style></defs><title>white</title><g id="Layer_2" data-name="Layer 2"><g id="Layer_13" data-name="Layer 13"><g id="Layer_14" data-name="Layer 14"><rect class="cls-1" x="37.06" y="35.13" width="2.09" height="1.42"/><polygon class="cls-1" points="38.27 37.68 37.95 37.68 37.95 32.34 38.11 31.91 38.27 32.34 38.27 37.68"/><rect class="cls-1" x="34.85" y="36.37" width="6.37" height="27.03"/></g><polygon class="cls-2" points="94.14 32.22 66.45 5.68 57.3 14.64 44.02 1.61 7.98 62.83 50.23 62.83 94.14 32.22"/><polygon class="cls-2" points="128.95 62.83 50.23 62.83 94.14 32.22 128.95 62.83"/><line class="cls-2" x1="57.3" y1="14.64" x2="74.58" y2="32.63"/><path class="cls-1" d="M24.46,45V63.2l14.25,0,0-20.82L27,42.37A2.58,2.58,0,0,0,24.46,45Z"/><path class="cls-1" d="M70.07,41.35l-.34,21.8L52.3,63.2,52.51,36l5.13,5.17Z"/><text class="cls-3" transform="translate(0 82.1) scale(0.83 1)">BOISE</text><text class="cls-4" transform="translate(89.48 72.9) scale(1.05 1)">CODE<tspan class="cls-5"><tspan x="0" y="9.07">C</tspan><tspan class="cls-6" x="10.65" y="9.07">AMP</tspan></tspan></text></g><g id="Layer_16" data-name="Layer 16"><path class="cls-1" d="M45.5,43.66H44.36c-.25-.73.54-1.63.6-1.68s.51-1,.51-1h0C45.5,41.84,45.51,42.74,45.5,43.66Z"/><path class="cls-1" d="M45.5,43.66h1.1c.24-.73-.5-1.63-.56-1.68s-.51-1-.51-1h0Z"/><path class="cls-1" d="M45.51,63.2H36a2,2,0,0,0,.29-.18c.43-.38.36-.89.69-2.05a2.23,2.23,0,0,1,.38-.89,4,4,0,0,1,.64-.51l.44-.27-.12-7.56,2.09-.12c0-2.36,0-1.72,0-4.08a3.56,3.56,0,0,1,.1-.36c.16-.44.66-1.49.89-2a3.35,3.35,0,0,1,1.41-1.32A7.2,7.2,0,0,1,44,43.33a4.92,4.92,0,0,1,.79-.27,5.36,5.36,0,0,1,.77-.14Z"/><path class="cls-1" d="M45.51,63.2h9.55a2,2,0,0,1-.29-.18c-.43-.38-.36-.89-.69-2.05a2.05,2.05,0,0,0-.39-.89,3.51,3.51,0,0,0-.63-.51l-.44-.27.12-7.56-2.09-.12c0-2.36,0-1.72,0-4.08a3.56,3.56,0,0,0-.1-.36c-.16-.44-.66-1.49-.89-2a3.35,3.35,0,0,0-1.41-1.32,7.64,7.64,0,0,0-1.17-.56,5.28,5.28,0,0,0-.79-.27,5.36,5.36,0,0,0-.77-.14Z"/><path class="cls-1" d="M45.51,63.2H62.14l-1.22-1.61c0-1.53-.14-5.76-1.8-5.76H45.51Z"/><path class="cls-1" d="M45.51,63.2H28.88l1.22-1.61c0-1.53.14-5.76,1.8-5.76H45.51Z"/></g></g></svg>